<svg xmlns="http://www.w3.org/2000/svg" viewBox="0 0 176.25 172.84"><path d="M103.11,19.27c0-10.19-6.71-16.07-15-16.07s-15,5.88-15,16.07a20.26,20.26,0,0,0,5.52,14.3,4.08,4.08,0,0,1,1.23,2.88v5.11a4.68,4.68,0,0,0,2.85,4.33,13.4,13.4,0,0,0,10.77,0,4.68,4.68,0,0,0,2.85-4.33V36.45a4.11,4.11,0,0,1,1.22-2.88A20.23,20.23,0,0,0,103.11,19.27Z" fill="none" stroke="#4a4a4a" stroke-linecap="round" stroke-miterlimit="10" stroke-width="6.4"/><path d="M69.36,98v64.67a7,7,0,0,0,7,7h4.77a7,7,0,0,0,7-7V114h0v48.66a7,7,0,0,0,7,7h4.77a7,7,0,0,0,7-7v-65" fill="none" stroke="#4a4a4a" stroke-linecap="round" stroke-miterlimit="10" stroke-width="6.4"/><path d="M97,42.38l17.34,5.75a10.46,10.46,0,0,1,7.17,9.93V97.68a4.9,4.9,0,0,1-4.9,4.91h-4.86a4.9,4.9,0,0,1-4.9-4.91V65.5" fill="none" stroke="#4a4a4a" stroke-linecap="round" stroke-miterlimit="10" stroke-width="6.4"/><path d="M79.2,42.38,61.86,48.13a10.45,10.45,0,0,0-7.16,9.93V97.68a4.9,4.9,0,0,0,4.9,4.91h4.86a4.9,4.9,0,0,0,4.9-4.91V65.5" fill="none" stroke="#4a4a4a" stroke-linecap="round" stroke-miterlimit="10" stroke-width="6.4"/><line x1="88.12" y1="119.47" x2="88.12" y2="113.2" fill="none" stroke="#4a4a4a" stroke-linecap="round" stroke-miterlimit="10" stroke-width="6.4"/><path d="M48.26,31.78c0-10-6.61-15.85-14.77-15.85s-14.78,5.8-14.78,15.85a20,20,0,0,0,5.45,14.1,4,4,0,0,1,1.21,2.83v5A4.6,4.6,0,0,0,28.17,58a14.19,14.19,0,0,0,5.32,1.12A14.18,14.18,0,0,0,38.8,58a4.61,4.61,0,0,0,2.81-4.26v-5a4,4,0,0,1,1.2-2.83A20,20,0,0,0,48.26,31.78Z" fill="none" stroke="#4a4a4a" stroke-linecap="round" stroke-miterlimit="10" stroke-width="6.4"/><path d="M16.49,104.71v58.6a6.32,6.32,0,0,0,6.33,6.33h4.33a6.33,6.33,0,0,0,6.34-6.33V119.22h0v44.09a6.32,6.32,0,0,0,6.33,6.33h4.33a6.32,6.32,0,0,0,6.33-6.33V114.68" fill="none" stroke="#4a4a4a" stroke-linecap="round" stroke-miterlimit="10" stroke-width="6.4"/><path d="M25.4,54.34,9.69,59.55a9.49,9.49,0,0,0-6.49,9v35.9a4.44,4.44,0,0,0,4.44,4.44h4.41a4.44,4.44,0,0,0,4.44-4.44V75.29" fill="none" stroke="#4a4a4a" stroke-linecap="round" stroke-miterlimit="10" stroke-width="6.4"/><line x1="33.49" y1="124.18" x2="33.49" y2="118.51" fill="none" stroke="#4a4a4a" stroke-linecap="round" stroke-miterlimit="10" stroke-width="6.4"/><path d="M128,31.78c0-10,6.61-15.85,14.77-15.85s14.78,5.8,14.78,15.85a20,20,0,0,1-5.45,14.1,4,4,0,0,0-1.21,2.83v5A4.59,4.59,0,0,1,148.07,58a13.15,13.15,0,0,1-10.62,0,4.61,4.61,0,0,1-2.81-4.26v-5a4,4,0,0,0-1.21-2.83A20,20,0,0,1,128,31.78Z" fill="none" stroke="#4a4a4a" stroke-linecap="round" stroke-miterlimit="10" stroke-width="6.4"/><path d="M159.76,104.71v58.6a6.33,6.33,0,0,1-6.34,6.33H149.1a6.33,6.33,0,0,1-6.34-6.33V119.22h0v44.09a6.32,6.32,0,0,1-6.33,6.33H132.1a6.33,6.33,0,0,1-6.34-6.33V114.68" fill="none" stroke="#4a4a4a" stroke-linecap="round" stroke-miterlimit="10" stroke-width="6.4"/><path d="M150.84,54.34l15.71,5.21a9.48,9.48,0,0,1,6.5,9v35.9a4.44,4.44,0,0,1-4.44,4.44H164.2a4.44,4.44,0,0,1-4.44-4.44V75.29" fill="none" stroke="#4a4a4a" stroke-linecap="round" stroke-miterlimit="10" stroke-width="6.4"/><line x1="142.76" y1="124.18" x2="142.76" y2="118.51" fill="none" stroke="#4a4a4a" stroke-linecap="round" stroke-miterlimit="10" stroke-width="6.4"/></svg>